<?xml version="1.0" standalone="no"?>
<!DOCTYPE svg PUBLIC "-//W3C//DTD SVG 20010904//EN"
 "http://www.w3.org/TR/2001/REC-SVG-20010904/DTD/svg10.dtd">
<svg version="1.0" xmlns="http://www.w3.org/2000/svg"
 width="1024.000000pt" height="1024.000000pt" viewBox="0 0 1024.000000 1024.000000"
 preserveAspectRatio="xMidYMid meet">
<metadata>
Created by potrace 1.14, written by Peter Selinger 2001-2017
</metadata>
<g transform="translate(0.000000,1024.000000) scale(0.100000,-0.100000)"
fill="#000000" stroke="none">
<path d="M1850 5120 l0 -3260 3270 0 3270 0 -2 833 -3 832 -227 3 -228 2 0
-605 c0 -397 -3 -605 -10 -605 -5 0 -1265 0 -2800 0 -1534 0 -2794 0 -2800 0
-7 0 -10 940 -10 2800 0 1860 3 2800 10 2800 6 0 1266 0 2800 0 1535 0 2795 0
2800 0 7 0 10 -223 10 -650 l0 -650 230 0 230 0 0 880 0 880 -3270 0 -3270 0
0 -3260z"/>
<path d="M5644 6006 c-17 -8 -44 -31 -60 -51 -24 -32 -29 -48 -29 -96 0 -43 6
-65 21 -86 72 -97 186 -97 258 0 29 40 29 134 0 173 -48 65 -126 89 -190 60z"/>
<path d="M4780 5894 c-186 -37 -305 -98 -425 -218 -99 -100 -146 -177 -187
-306 -30 -97 -33 -298 -6 -400 34 -125 94 -226 193 -326 80 -81 102 -97 195
-142 134 -64 237 -86 370 -79 52 3 122 12 155 21 94 25 253 109 322 170 l62
54 -81 91 -80 90 -42 -34 c-44 -35 -148 -91 -201 -106 -282 -83 -554 72 -620
353 -19 80 -19 136 0 216 36 151 126 265 261 329 73 35 87 38 184 41 88 3 116
0 170 -18 81 -27 136 -60 199 -116 l50 -45 75 95 c42 52 76 99 76 105 0 15
-79 79 -150 121 -36 22 -108 53 -160 71 -81 27 -112 32 -215 34 -66 2 -131 1
-145 -1z"/>
<path d="M5574 5535 c-2 -5 -3 -253 -2 -550 l3 -540 133 -3 132 -3 0 550 0
550 -131 3 c-81 2 -133 -1 -135 -7z"/>
<path d="M6615 5537 c-102 -26 -184 -81 -243 -162 l-21 -30 -1 98 0 97 -135 0
-135 0 0 -550 0 -550 134 0 135 0 3 318 3 317 26 55 c52 112 135 165 259 165
88 0 140 -23 188 -80 49 -60 52 -86 52 -444 l0 -331 135 0 135 0 0 388 c0 419
-2 440 -55 535 -34 60 -104 123 -173 155 -48 22 -74 27 -157 29 -57 1 -122 -3
-150 -10z"/>
<path d="M7696 5534 c-127 -31 -262 -128 -324 -233 -128 -219 -102 -526 59
-696 66 -70 125 -107 224 -141 71 -25 94 -28 205 -27 107 0 137 4 205 26 89
29 161 71 218 125 l37 36 -72 73 -71 72 -38 -30 c-103 -81 -269 -112 -380 -70
-73 28 -131 79 -163 143 -48 96 -82 88 381 88 l406 0 -6 113 c-20 361 -196
538 -532 536 -49 0 -116 -7 -149 -15z m265 -209 c91 -31 169 -129 169 -212 l0
-33 -286 0 -286 0 7 38 c15 83 96 177 179 206 55 19 162 20 217 1z"/>
</g>
</svg>
